<svg xmlns="http://www.w3.org/2000/svg" width="1500" height="416"><g transform="translate(-.91 .21)"><svg xmlns="http://www.w3.org/2000/svg" xmlns:xlink="http://www.w3.org/1999/xlink" width="1500" height="416" data-background-color="#1a1a1a" viewBox="0 0 396 110"><g transform="translate(.24 .035)"><svg width="395.52" height="109.933" viewBox="0 0 395.52 109.933"><g><svg width="395.52" height="109.933" viewBox="0 0 529.451 147.159"><g transform="translate(133.931 15.073)"><svg width="395.52" height="117.014" viewBox="0 0 395.52 117.014"><g><svg width="395.52" height="117.014" viewBox="0 0 395.52 117.014"><g><svg width="395.52" height="60.128" viewBox="0 0 395.52 60.128"><g><svg width="395.52" height="60.128" data-palette-color="#d1d5db" viewBox="3.66 -38.38 256.45 38.99"><path fill="#d1d5db" d="M23.54-14.01h.19q.34-1.32.75-2.6.4-1.29.98-2.87.52-1.42 1.25-3.26.73-1.84 1.55-3.75.82-1.9 1.6-3.54.78-1.64 1.41-2.61.79-1.2 1.7-1.78.92-.59 2.7-.59h3.2q1.27 0 2.13.38.87.38 1.24 1.79.26 1.05.51 3.08.24 2.03.41 5.61.17 3.59.27 9.22.1 5.63.1 13.9 0 .44-.29.74-.3.29-.71.29h-5.57q-.41 0-.71-.29-.29-.3-.29-.76v-10.94q0-4.49-.02-7.44-.03-2.96-.06-4.7-.04-1.75-.11-2.7h-.15q-1.29 2.98-2.76 6.63-1.46 3.65-2.86 7.52-1.39 3.87-2.49 7.55-.31 1.1-.79 1.53-.47.43-2.16.43h-2.81q-1.44 0-1.91-.37-.48-.37-.82-1.59-.81-2.78-1.78-5.88-.98-3.1-2.02-6.09-1.04-2.99-2-5.52-.96-2.53-1.72-4.21h-.15q-.19 2.88-.34 7.01-.15 4.12-.23 8.96-.09 4.83-.11 9.86 0 .44-.29.72-.3.28-.71.28H4.66q-.41 0-.7-.29-.3-.3-.3-.76.03-13.01.53-20.78.5-7.76 1.08-10.4.39-1.73 1.38-2.25.99-.53 2.26-.53h3.96q1.34 0 1.96.48.62.47 1.53 1.84.53.81 1.28 2.42.74 1.61 1.55 3.57.81 1.97 1.53 3.89.72 1.91 1.18 3.33.49 1.44.9 2.79.42 1.36.74 2.68ZM62.47.61q-6.15 0-9.74-3.27t-3.59-9.74q0-6.64 3.73-9.93 3.72-3.28 9.94-3.28 6.01 0 9.62 3.23 3.62 3.24 3.62 9.54 0 6.57-3.62 10.01Q68.82.61 62.47.61Zm.25-5.91q2.68 0 4.05-1.67 1.37-1.67 1.37-5.73 0-3.85-1.38-5.43-1.38-1.57-4.09-1.57-2.61 0-4.12 1.69-1.5 1.7-1.5 5.51 0 3.98 1.43 5.59 1.43 1.61 4.24 1.61Zm23.85 3.03q-1.35-2.12-2.65-4.9-1.31-2.77-2.37-5.61-1.06-2.85-1.7-5.2-.63-2.36-.63-3.63 0-.48.27-.8 1.12-1.39 3.2-2.91.36-.24.65-.24.32 0 .66.24 1.13.81 1.9 1.52.76.7 1.3 1.39.27.32.27.9v-.12q0 1.59.57 4.16.58 2.58 1.58 5.43 1 2.86 2.32 5.25h.12q1.1-1.8 1.95-3.9.86-2.1 1.44-4.2.59-2.1.9-3.86.3-1.76.3-2.86v.1q0-.58.24-.9.57-.69 1.32-1.39.76-.71 1.83-1.52.35-.24.64-.24.34 0 .63.24 1.1.81 1.86 1.52.76.7 1.29 1.39.25.32.25.85-.03 1.32-.69 3.7-.66 2.38-1.77 5.23-1.11 2.84-2.47 5.59-1.37 2.74-2.79 4.77-.85 1.24-1.54 1.76-.68.51-2.36.51H90.5q-1.76 0-2.43-.49-.67-.49-1.5-1.78Zm-7.35-19.24v-.12V-21.51Zm25.49-.1v.1-.1Zm3.39-11.59q0-.32.19-.56.2-.25.52-.64.68-.78 1.58-1.65.91-.86 1.83-1.67.59-.46.88-.46.3 0 .91.46 1.97 1.71 3.37 3.32l.52.62q.21.26.21.58 0 .31-.21.56-.21.24-.55.66-.66.75-1.54 1.62-.88.87-1.8 1.65-.35.29-.54.38-.2.08-.37.08-.17 0-.35-.08-.18-.09-.57-.38-.98-.78-1.84-1.65-.85-.87-1.53-1.67-.32-.39-.52-.62-.19-.24-.19-.55Zm8.84 9.49v22.42q0 .73-.31 1.01-.3.28-1.04.28h-5.03q-.73 0-1.03-.28-.31-.28-.31-1.01v-22.42q0-.73.31-1.01.3-.28 1.03-.28h5.03q.74 0 1.04.28.31.28.31 1.01ZM135.83.61q-4.13 0-7.18-1.33t-4.73-4.14q-1.69-2.81-1.69-7.25 0-6.66 3.42-10.08t9.08-3.42q3.69 0 6.24 1.32 2.55 1.32 3.88 3.64 1.33 2.32 1.33 5.29 0 2.91-1.49 4.06-1.49 1.14-4.34 1.14h-10.48q.2 2.52 1.85 3.84Q133.36-5 136.2-5q2.24 0 3.6-.68 1.35-.67 1.89-1.06.46-.34 1.05-.32.46 0 1.33.19.87.18 1.72.67.61.32.61.88 0 .32-.12.9-.07.34-.25.99-.17.65-.43 1.21-.15.27-.47.51-.49.34-1.57.9-1.09.57-2.97.99-1.88.43-4.76.43Zm-6.01-15.77h7.96q1.25 0 1.25-1.15 0-1.73-1.09-2.92-1.08-1.18-3.26-1.18-2.37 0-3.48 1.51-1.11 1.52-1.38 3.74ZM170.32 0h-12.13q-2.51 0-3.82-.63-1.31-.64-1.76-2.08-.45-1.44-.45-3.83V-31.1q0-.71.24-1.08 1.1-1.61 3.08-3.39.37-.29.64-.29.29 0 .61.29 1.07.93 1.8 1.77t1.27 1.62q.25.39.25 1.08v21.65q0 1.64.58 2.35.59.7 2.2.7l7.49-.02q.59 0 .88.19.64.44 1.32 1.05.69.61 1.44 1.47.25.32.25.51 0 .22-.25.49-.75.85-1.44 1.46-.68.62-1.32 1.05-.34.2-.88.2Zm13.16.61q-3.59 0-5.7-2.01-2.11-2.02-2.11-5.56 0-1.83.67-3.4.67-1.58 2.34-2.79 1.68-1.21 4.69-1.94 3.02-.73 7.7-.85 0-2.22-1.11-3.2t-3.33-.98q-2 0-3.27.69-1.27.68-1.59.92-.34.3-.83.22-.66-.09-1.4-.34-.75-.24-1.6-.56-.12-.05-.27-.16-.15-.11-.17-.33 0-.12.02-.3.03-.19.13-.67.09-.49.29-1.21.19-.72.37-1.11.22-.42.73-.78.41-.35 2.51-1.1 2.1-.76 6.08-.76 10.96 0 10.96 10.67v13.82q0 .46-.25.79-.26.33-.87.33h-3.66q-.39 0-.7-.11-.3-.11-.57-.43l-1.51-1.95h-.18q-1.12 1.64-3.01 2.37-1.89.73-4.36.73Zm2.69-5.66q2.24 0 3.39-1.15t1.47-2.37v-2.71q-3.4 0-5.1.53-1.69.52-2.25 1.36-.57.85-.57 1.82 0 1.42.88 1.97t2.18.55Zm43.18-10.5v14.26q0 .73-.3 1.01-.31.28-1.04.28h-5.03q-.73 0-1.04-.28-.3-.28-.3-1.01v-12.99q0-2.66-1.13-3.88-1.12-1.22-3.05-1.22-1.93 0-2.96.83-1.04.83-1.6 2.09v15.17q0 .73-.31 1.01-.3.28-1.04.28h-5.02q-.74 0-1.04-.28-.31-.28-.31-1.01v-20.46q0-.59.25-.91.51-.68 1.23-1.39.72-.71 1.77-1.51.32-.25.61-.25.27 0 .61.25 1.03.8 1.76 1.54.73.73 1.29 1.51h.12q.42-.54 1.25-1.26.83-.72 2.33-1.28t3.85-.56q2.29 0 4.37.93 2.07.93 3.4 3.12 1.33 2.2 1.33 6.01ZM244.78.61q-3.25 0-5.53-1.6-2.28-1.6-3.47-4.42-1.18-2.82-1.18-6.5 0-4.86 1.72-7.88 1.72-3.01 4.86-4.43 3.14-1.41 7.41-1.41 1.46 0 2.43.14.96.15 1.38.27v-9.11q0-.58.24-.9 1.03-1.34 3-2.9.35-.25.61-.25.32 0 .61.25 1.05.8 1.77 1.51.73.71 1.24 1.39.24.32.24.9v33.21q0 .46-.32.79-.31.33-.8.33h-3.64q-.39 0-.69-.11-.31-.11-.58-.43l-1.51-1.95h-.17q-.32.49-1.14 1.23-.82.75-2.37 1.31-1.55.56-4.11.56Zm2.37-6.25q2.2 0 3.45-.83 1.26-.83 1.8-2.1V-18.8q-.39-.24-1.3-.58-.9-.35-2.54-.35-3.02 0-4.54 1.98-1.51 1.98-1.51 5.32 0 3.47 1.27 5.13 1.27 1.66 3.37 1.66Z" class="wordmark-text-0" data-fill-palette-color="primary"/></svg></g></svg></g><g transform="translate(0 74.323)"><svg width="188.192" height="42.691" viewBox="0 0 188.192 42.691"><g><svg width="188.192" height="42.691" data-palette-color="#d1d5db" viewBox="4.2 -34.85 202.98 46.05"><path fill="#d1d5db" d="M20.95 0H4.2v-34.85h6.35V-5.5h10.4V0Zm15.1.65q-4.2 0-6.78-1.76-2.57-1.77-3.75-4.68-1.17-2.91-1.17-6.36 0-3.63 1.33-6.66 1.34-3.04 3.93-4.87 2.59-1.82 6.34-1.82 5.6 0 7.82 3.24Q46-19.03 46-13.1q0 .52-.03 1.32-.02.8-.07 1.38h-15q.15 2.95 1.66 4.62Q34.07-4.1 37.1-4.1q1.55 0 3.32-.69 1.78-.69 2.63-1.66l2 4.75q-1 .67-3.16 1.51-2.17.84-5.84.84Zm-5.2-14.95h8.8q0-2.63-.46-4.01-.47-1.39-1.27-1.92-.8-.52-1.82-.52-2.55 0-3.83 1.89-1.27 1.88-1.42 4.56ZM61.8.5q-5.5 0-8.5-3.45t-3-9.55q0-6.15 3.1-9.58 3.1-3.42 8.6-3.42 5.52 0 8.41 3.54 2.89 3.53 2.89 9.46 0 5.92-2.99 9.46Q67.32.5 61.8.5Zm.1-5q4.75 0 4.75-8 0-8.05-4.75-8.05-2.35 0-3.65 1.86-1.3 1.87-1.3 6.19 0 4.3 1.3 6.15 1.3 1.85 3.65 1.85ZM99.14 0h-4.45l-10.1-24.9h7l4.3 12.45 1.1 4.1 1-4.1 4.15-12.45h6.6L99.14 0Zm23.1.65q-4.2 0-6.78-1.76-2.57-1.77-3.75-4.68-1.17-2.91-1.17-6.36 0-3.63 1.34-6.66 1.33-3.04 3.92-4.87 2.59-1.82 6.34-1.82 5.6 0 7.82 3.24 2.23 3.23 2.23 9.16 0 .52-.03 1.32-.02.8-.07 1.38h-15q.15 2.95 1.66 4.62 1.51 1.68 4.54 1.68 1.55 0 3.32-.69 1.78-.69 2.63-1.66l2 4.75q-1 .67-3.16 1.51-2.17.84-5.84.84Zm-5.2-14.95h8.8q0-2.63-.46-4.01-.47-1.39-1.27-1.92-.8-.52-1.82-.52-2.55 0-3.83 1.89-1.27 1.88-1.42 4.56ZM138.74 9l2.8-4.7q.9.55 2.18 1 1.29.45 3.02.45 3.2 0 4.8-1.66 1.6-1.66 1.6-5.29v-3.9q-.35 1.27-1.1 2.52-.75 1.25-2.07 2.07-1.31.81-3.33.81-2.83 0-5.12-1.29-2.28-1.28-3.63-4.09-1.35-2.8-1.35-7.32 0-4.6 1.33-7.49 1.34-2.89 3.6-4.25 2.27-1.36 5.02-1.36 3.07 0 4.7 1.55 1.62 1.55 1.95 3.35l.7-4.3h4.9v23.7q0 5.73-2.89 9.06-2.89 3.34-8.51 3.34-3.03 0-5.25-.76-2.23-.76-3.35-1.44Zm9.15-13.6q2.17 0 3.41-2.06 1.24-2.06 1.24-5.84 0-3.57-1.08-5.76-1.07-2.19-3.37-2.19-1.28 0-2.44.76t-1.91 2.51q-.75 1.75-.75 4.73 0 4.05 1.38 5.95 1.39 1.9 3.52 1.9ZM170.98.7q-2.3 0-3.81-1.03-1.51-1.02-2.25-2.72-.74-1.7-.74-3.75 0-1.15.59-2.53.59-1.37 2.09-2.62t4.22-2.05q2.73-.8 7-.8v-1.15q0-1.85-.88-3.08-.89-1.22-3.57-1.22-1.95 0-3.81.66t-2.74 1.64l-2-4.8q1.5-1.03 4.02-1.89 2.51-.86 5.58-.86 3.7 0 5.75 1.12 2.05 1.13 2.88 3.19.82 2.06.82 4.84V0h-5.35l-.45-3.55Q175.73.7 170.98.7Zm2.65-4.8q1.13 0 2.42-.91 1.28-.92 2.03-2.34v-3.55q-.25-.05-.53-.05h-.67q-1.37 0-2.88.31-1.52.31-2.57 1.09-1.05.77-1.05 2.15 0 1.8.8 2.55.8.75 2.45.75Zm24 4.55q-2.72 0-4.46-.51-1.74-.52-2.7-1.18-.96-.66-1.34-1.11l1.85-4.75q1.1.9 2.81 1.77 1.72.88 3.99.88 1.78 0 2.49-.73.71-.72.71-1.57 0-1.18-1.62-2.13-1.63-.95-3.78-1.87-1.27-.55-2.7-1.4-1.42-.85-2.44-2.25-1.01-1.4-1.01-3.6 0-3.38 2.46-5.39 2.47-2.01 6.99-2.01 2.9 0 4.91.86 2.02.86 2.69 1.54l-1.7 4.5q-.97-.75-2.47-1.43-1.5-.67-3.23-.67-1.9 0-2.65.5t-.75 1.6q0 1.22 1.34 2.01 1.34.79 3.21 1.54 3.13 1.22 5.04 3.01 1.91 1.79 1.91 4.54 0 2.05-.95 3.84-.95 1.78-3.05 2.9-2.1 1.11-5.55 1.11Z" class="slogan-text-1" data-fill-palette-color="secondary"/></svg></g></svg></g></svg></g></svg></g><g><svg width="119.737" height="147.159" viewBox="0 0 119.737 147.159"><g><svg xmlns="http://www.w3.org/2000/svg" xmlns:xlink="http://www.w3.org/1999/xlink" xml:space="preserve" width="119.737" height="147.159" class="icon-icon-0" data-fill-palette-color="accent" version="1.0" viewBox="11.995 3.276 76.064 93.484"><g fill="#b91c1c" data-fill-palette-color="accent"><path d="M45.643 49.162a.11.11 0 0 0-.029.132c.088.183 1.968 4.026 3.584 4.983l-.025 5.86-.305.007-.946.063a40 40 0 0 0-1.679.208 40 40 0 0 0-1.21.215c-.308.063-.482.103-.482.103a.89.89 0 1 0 .722 1.581l.006-.006s.032-.023.093-.071c.051-.035.12-.096.225-.164.219-.141.548-.328.968-.503.212-.082.44-.185.692-.254.25-.068.516-.159.798-.207.282-.045.572-.115.873-.14l.896-.053.94.061c.305.026.581.101.86.146.277.05.543.145.794.213.251.075.478.179.688.263.42.177.747.367.966.511.22.148.307.235.301.23a.868.868 0 1 0 .769-1.555s-.049-.015-.142-.038l-.354-.076c-.297-.06-.715-.138-1.207-.224a34 34 0 0 0-1.681-.223c-.312-.023-.63-.049-.955-.072l-.145-.006.023-5.959c1.594-1.077 3.396-4.676 3.482-4.855a.11.11 0 0 0-.029-.133c-.953-.776-2.163-1.259-3.497-1.399-1.849-.193-3.67.304-4.994 1.362M45.224 40.332c-.005.117-.033.234-.061.359a3 3 0 0 0-.04.181l-.024.085a5 5 0 0 1-.147.444l-.026.066a5 5 0 0 1-.19.421 4 4 0 0 1-.188.35l-.038.067c-.18.294-.332.494-.407.591a3 3 0 0 1-.119.145l-.057.066a.432.432 0 0 0 .282.717.44.44 0 0 0 .345-.118l.059-.057c.041-.042.101-.099.167-.17.161-.17.349-.4.529-.643l.043-.064c.084-.117.178-.252.261-.393.104-.16.192-.333.286-.516l.017-.033c.097-.192.175-.396.268-.631.019-.068.041-.136.063-.205.049-.153.102-.31.124-.473l.07-.354c.009-.077.015-.154.021-.23l.011-.131c.001-.039.004-.078.008-.116.007-.078.015-.159.008-.24-.006-.11-.009-.217-.016-.336-.001-.194-.037-.372-.07-.543l-.041-.203a2 2 0 0 0-.05-.221l-.089-.269-.056-.16c-.037-.113-.071-.219-.119-.309l-.315-.628-.029-.049a.5.5 0 0 0-.107-.132c-.365-.512-1.192-.881-2.214-.987a5.6 5.6 0 0 0-1.039-.012l-3.226-.013-.005.104c-.002.03-.025.747.918 2.035l.062.078.004-.002c.394.465 1.185.797 2.142.896a5.6 5.6 0 0 0 1.594-.059v.004l.146-.032s.185-.041.412-.017c.395.04.667.235.803.551a1 1 0 0 1 .015.105l.028.179.012.089c.009.049.008.097.008.148a1 1 0 0 0 .001.105v.107c.001.056.002.114 0 .164zM54.081 39.844l.005.088c.006.089.011.178.024.276l.062.341c.024.169.074.329.125.484.021.066.039.133.064.222.08.205.162.417.257.611l.013.025c.093.186.183.362.283.52.084.148.174.277.261.401l.044.066a7 7 0 0 0 .689.819l.059.057a.44.44 0 0 0 .256.12.44.44 0 0 0 .33-.103c.18-.157.2-.431.037-.623l-.048-.057a2 2 0 0 1-.119-.146 6 6 0 0 1-.398-.592l-.039-.066c-.063-.111-.129-.227-.19-.358a5 5 0 0 1-.188-.427l-.021-.056a5 5 0 0 1-.143-.442l-.023-.078c-.01-.064-.025-.128-.039-.192-.026-.125-.053-.242-.058-.368l-.029-.277c-.004-.058 0-.114 0-.171l.002-.1c.003-.037.003-.075.003-.111 0-.052 0-.102.011-.173.014-.084.025-.164.039-.254.003-.033.011-.065.008-.072.245-.568.8-.598 1.107-.566.074.008.116.019.122.019l.609.14-.079-.05c.208.026.428.039.644.04 1.182.005 2.231-.346 2.714-.902l.005.004.062-.081c.954-1.278.937-1.997.934-2.027l-.002-.104-3.228-.013a6 6 0 0 0-.471-.024c-1.256-.004-2.351.386-2.777.98a.7.7 0 0 0-.148.193l-.321.624c-.051.091-.085.197-.122.308l-.059.165-.094.268a2 2 0 0 0-.049.21l-.044.214c-.034.171-.071.348-.074.536l-.021.339c-.006.085 0 .167.008.248.001.038.005.074.007.115" data-fill-palette-color="accent"/><path d="M82.368 20.627a25.5 25.5 0 0 0-5.083-4.705l3.523 1.04a.33.33 0 0 0 .362-.126.33.33 0 0 0-.008-.38C75.048 8.19 60.591 6.253 56.979 5.91c.515-.391 1.566-1.044 3.651-1.932a.32.32 0 0 0 .192-.365.326.326 0 0 0-.319-.259c-3.996-.017-9.28 2.224-10.343 2.865-1.054-.65-10.177-2.928-14.173-2.943a.33.33 0 0 0-.321.258.33.33 0 0 0 .189.366c2.082.906 3.129 1.57 3.637 1.962-3.614.31-15.519 2.756-21.706 10.971a.325.325 0 0 0 .349.509l3.533-1.01c-1.403.957-2.009 1.832-3.838 4.019-3.202 3.829-6.775 15.005-5.609 25.081a.324.324 0 0 0 .278.284.34.34 0 0 0 .346-.199l1.696-4.131c-.229 6.479.247 22.914 14.876 34.148a.32.32 0 0 0 .344.034.33.33 0 0 0 .178-.298l-.05-2.807c1.41 2.982 4.74 5.72 8.216 8.58 4.474 3.68 9.102 6.844 10.732 11.728.399 1.196.6 2.427.594 3.656v.007c0 .168.126.31.293.325.011.001.021.002.031.001a.324.324 0 0 0 .327-.323c.005-1.182.198-2.359.572-3.5 1.625-4.943 6.344-8.11 10.904-11.792 3.506-2.83 8.792-7.47 10.227-10.442l-.071 2.811a.32.32 0 0 0 .175.297.32.32 0 0 0 .345-.028c14.725-11.107 13.453-30.107 13.279-36.588l1.661 4.145a.325.325 0 0 0 .625-.081c1.254-10.065-2.263-16.775-5.431-20.632m-54.655 6.085s.947.082 1.495.341c-1.322.492-1.454 2.621-1.454 2.621-3.034-3.06-4.267-6.756-2.754-8.256s5.047-.291 7.729 2.494c0 .001-4.062.44-5.016 2.8m32.445 22.943 6.677 7.394c-.034 7.773.891 11.872-16.736 11.797l-.003-.002c-9.571-.04-13.658-1.268-15.392-3.622a5.3 5.3 0 0 1-.649-1.163c-.747-1.859-.605-4.248-.592-7.152l6.738-7.335s-9.011-6.178-8.95-20.086c0 0 8.529-3.846 19.032-3.801 10.501.045 18.999 3.964 18.999 3.964-.063 13.908-9.124 20.006-9.124 20.006m12.073-20.008s-.113-2.13-1.43-2.632c.549-.255 1.889.362 1.889.362-.935-2.368-5.381-3.534-5.381-3.534 2.703-2.762 6.248-3.939 7.747-2.428 1.499 1.514.235 5.199-2.825 8.232" data-fill-palette-color="accent"/></g></svg></g></svg></g></svg></g></svg></g></svg></g></svg>